<mxfile host="app.diagrams.net" agent="Mozilla/5.0 (Windows NT 10.0; Win64; x64) AppleWebKit/537.36 (KHTML, like Gecko) Chrome/127.0.0.0 Safari/537.36" version="24.7.7">
  <diagram name="Page-1" id="Q24Te6iQJMVP2xUG6GIa">
    <mxGraphModel dx="2100" dy="1236" grid="1" gridSize="10" guides="1" tooltips="1" connect="1" arrows="1" fold="1" page="1" pageScale="2" pageWidth="850" pageHeight="1100" math="0" shadow="0">
      <root>
        <mxCell id="0" />
        <mxCell id="1" parent="0" />
        <mxCell id="2huRS0k6ANEK0z0OvlgN-1" value="start" style="ellipse;whiteSpace=wrap;html=1;fillColor=#e1d5e7;strokeColor=#9673a6;strokeWidth=4;" vertex="1" parent="1">
          <mxGeometry x="40" y="40" width="120" height="80" as="geometry" />
        </mxCell>
        <mxCell id="2huRS0k6ANEK0z0OvlgN-3" value="input milesDriven" style="rounded=0;whiteSpace=wrap;html=1;fillColor=#e1d5e7;strokeColor=#9673a6;shape=parallelogram;perimeter=parallelogramPerimeter;fixedSize=1;strokeWidth=4;" vertex="1" parent="1">
          <mxGeometry x="20" y="160" width="160" height="80" as="geometry" />
        </mxCell>
        <mxCell id="2huRS0k6ANEK0z0OvlgN-4" value="" style="edgeStyle=orthogonalEdgeStyle;rounded=0;orthogonalLoop=1;jettySize=auto;html=1;strokeColor=#9673a6;strokeWidth=4;fillColor=#e1d5e7;" edge="1" parent="1" source="2huRS0k6ANEK0z0OvlgN-1" target="2huRS0k6ANEK0z0OvlgN-3">
          <mxGeometry relative="1" as="geometry" />
        </mxCell>
        <mxCell id="2huRS0k6ANEK0z0OvlgN-5" value="input gallonsOfGasUsed" style="shape=parallelogram;perimeter=parallelogramPerimeter;whiteSpace=wrap;html=1;fixedSize=1;fillColor=#e1d5e7;strokeColor=#9673a6;strokeWidth=4;" vertex="1" parent="1">
          <mxGeometry x="20" y="280" width="160" height="80" as="geometry" />
        </mxCell>
        <mxCell id="2huRS0k6ANEK0z0OvlgN-6" value="" style="edgeStyle=orthogonalEdgeStyle;rounded=0;orthogonalLoop=1;jettySize=auto;html=1;strokeColor=#9673a6;strokeWidth=4;fillColor=#e1d5e7;" edge="1" parent="1" source="2huRS0k6ANEK0z0OvlgN-3" target="2huRS0k6ANEK0z0OvlgN-5">
          <mxGeometry relative="1" as="geometry" />
        </mxCell>
        <mxCell id="2huRS0k6ANEK0z0OvlgN-9" value="mpg = milesDriven / gallonsOfGasUsed" style="rounded=0;whiteSpace=wrap;html=1;fillColor=#e1d5e7;strokeColor=#9673a6;strokeWidth=4;" vertex="1" parent="1">
          <mxGeometry x="20" y="400" width="160" height="80" as="geometry" />
        </mxCell>
        <mxCell id="2huRS0k6ANEK0z0OvlgN-10" value="" style="edgeStyle=orthogonalEdgeStyle;rounded=0;orthogonalLoop=1;jettySize=auto;html=1;strokeColor=#9673a6;strokeWidth=4;fillColor=#e1d5e7;" edge="1" parent="1" source="2huRS0k6ANEK0z0OvlgN-5" target="2huRS0k6ANEK0z0OvlgN-9">
          <mxGeometry relative="1" as="geometry" />
        </mxCell>
        <mxCell id="2huRS0k6ANEK0z0OvlgN-11" value="output mpg" style="shape=parallelogram;perimeter=parallelogramPerimeter;whiteSpace=wrap;html=1;fixedSize=1;fillColor=#e1d5e7;strokeColor=#9673a6;strokeWidth=4;" vertex="1" parent="1">
          <mxGeometry x="20" y="520" width="160" height="80" as="geometry" />
        </mxCell>
        <mxCell id="2huRS0k6ANEK0z0OvlgN-12" value="" style="edgeStyle=orthogonalEdgeStyle;rounded=0;orthogonalLoop=1;jettySize=auto;html=1;strokeColor=#9673a6;strokeWidth=4;fillColor=#e1d5e7;" edge="1" parent="1" source="2huRS0k6ANEK0z0OvlgN-9" target="2huRS0k6ANEK0z0OvlgN-11">
          <mxGeometry relative="1" as="geometry" />
        </mxCell>
        <mxCell id="2huRS0k6ANEK0z0OvlgN-13" value="end" style="ellipse;whiteSpace=wrap;html=1;fillColor=#e1d5e7;strokeColor=#9673a6;strokeWidth=4;" vertex="1" parent="1">
          <mxGeometry x="40" y="630" width="120" height="80" as="geometry" />
        </mxCell>
        <mxCell id="2huRS0k6ANEK0z0OvlgN-14" value="" style="edgeStyle=orthogonalEdgeStyle;rounded=0;orthogonalLoop=1;jettySize=auto;html=1;strokeColor=#9673a6;strokeWidth=4;fillColor=#e1d5e7;" edge="1" parent="1" source="2huRS0k6ANEK0z0OvlgN-11" target="2huRS0k6ANEK0z0OvlgN-13">
          <mxGeometry relative="1" as="geometry" />
        </mxCell>
        <mxCell id="2huRS0k6ANEK0z0OvlgN-15" value="start" style="ellipse;whiteSpace=wrap;html=1;fillColor=#d5e8d4;strokeColor=#82b366;strokeWidth=4;" vertex="1" parent="1">
          <mxGeometry x="340" y="40" width="120" height="80" as="geometry" />
        </mxCell>
        <mxCell id="2huRS0k6ANEK0z0OvlgN-16" value="input monthlyRent" style="shape=parallelogram;perimeter=parallelogramPerimeter;whiteSpace=wrap;html=1;fixedSize=1;fillColor=#d5e8d4;strokeColor=#82b366;strokeWidth=4;" vertex="1" parent="1">
          <mxGeometry x="320" y="150" width="160" height="80" as="geometry" />
        </mxCell>
        <mxCell id="2huRS0k6ANEK0z0OvlgN-17" value="" style="edgeStyle=orthogonalEdgeStyle;rounded=0;orthogonalLoop=1;jettySize=auto;html=1;fillColor=#d5e8d4;strokeColor=#82b366;strokeWidth=4;" edge="1" parent="1" source="2huRS0k6ANEK0z0OvlgN-15" target="2huRS0k6ANEK0z0OvlgN-16">
          <mxGeometry relative="1" as="geometry" />
        </mxCell>
        <mxCell id="2huRS0k6ANEK0z0OvlgN-18" value="dailyRent = monthlyRent / 30" style="rounded=0;whiteSpace=wrap;html=1;fillColor=#d5e8d4;strokeColor=#82b366;strokeWidth=4;" vertex="1" parent="1">
          <mxGeometry x="320" y="280" width="160" height="80" as="geometry" />
        </mxCell>
        <mxCell id="2huRS0k6ANEK0z0OvlgN-19" value="" style="edgeStyle=orthogonalEdgeStyle;rounded=0;orthogonalLoop=1;jettySize=auto;html=1;fillColor=#d5e8d4;strokeColor=#82b366;strokeWidth=4;" edge="1" parent="1" source="2huRS0k6ANEK0z0OvlgN-16" target="2huRS0k6ANEK0z0OvlgN-18">
          <mxGeometry relative="1" as="geometry" />
        </mxCell>
        <mxCell id="2huRS0k6ANEK0z0OvlgN-21" value="output dailyRent" style="shape=parallelogram;perimeter=parallelogramPerimeter;whiteSpace=wrap;html=1;fixedSize=1;fillColor=#d5e8d4;strokeColor=#82b366;strokeWidth=4;" vertex="1" parent="1">
          <mxGeometry x="320" y="400" width="160" height="80" as="geometry" />
        </mxCell>
        <mxCell id="2huRS0k6ANEK0z0OvlgN-22" value="" style="edgeStyle=orthogonalEdgeStyle;rounded=0;orthogonalLoop=1;jettySize=auto;html=1;fillColor=#d5e8d4;strokeColor=#82b366;strokeWidth=4;" edge="1" parent="1" source="2huRS0k6ANEK0z0OvlgN-18" target="2huRS0k6ANEK0z0OvlgN-21">
          <mxGeometry relative="1" as="geometry" />
        </mxCell>
        <mxCell id="2huRS0k6ANEK0z0OvlgN-23" value="end" style="ellipse;whiteSpace=wrap;html=1;fillColor=#d5e8d4;strokeColor=#82b366;strokeWidth=4;" vertex="1" parent="1">
          <mxGeometry x="340" y="520" width="120" height="80" as="geometry" />
        </mxCell>
        <mxCell id="2huRS0k6ANEK0z0OvlgN-24" value="" style="edgeStyle=orthogonalEdgeStyle;rounded=0;orthogonalLoop=1;jettySize=auto;html=1;fillColor=#d5e8d4;strokeColor=#82b366;strokeWidth=4;" edge="1" parent="1" source="2huRS0k6ANEK0z0OvlgN-21" target="2huRS0k6ANEK0z0OvlgN-23">
          <mxGeometry relative="1" as="geometry" />
        </mxCell>
        <mxCell id="2huRS0k6ANEK0z0OvlgN-25" value="start" style="ellipse;whiteSpace=wrap;html=1;fillColor=#dae8fc;strokeColor=#6c8ebf;strokeWidth=4;" vertex="1" parent="1">
          <mxGeometry x="640" y="40" width="120" height="80" as="geometry" />
        </mxCell>
        <mxCell id="2huRS0k6ANEK0z0OvlgN-26" value="input monthlyRent" style="shape=parallelogram;perimeter=parallelogramPerimeter;whiteSpace=wrap;html=1;fixedSize=1;fillColor=#dae8fc;strokeColor=#6c8ebf;strokeWidth=4;" vertex="1" parent="1">
          <mxGeometry x="620" y="160" width="160" height="80" as="geometry" />
        </mxCell>
        <mxCell id="2huRS0k6ANEK0z0OvlgN-27" value="" style="edgeStyle=orthogonalEdgeStyle;rounded=0;orthogonalLoop=1;jettySize=auto;html=1;fillColor=#dae8fc;strokeColor=#6c8ebf;strokeWidth=4;" edge="1" parent="1" source="2huRS0k6ANEK0z0OvlgN-25" target="2huRS0k6ANEK0z0OvlgN-26">
          <mxGeometry relative="1" as="geometry" />
        </mxCell>
        <mxCell id="2huRS0k6ANEK0z0OvlgN-28" value="input utilitiesCost" style="shape=parallelogram;perimeter=parallelogramPerimeter;whiteSpace=wrap;html=1;fixedSize=1;fillColor=#dae8fc;strokeColor=#6c8ebf;strokeWidth=4;" vertex="1" parent="1">
          <mxGeometry x="620" y="280" width="160" height="80" as="geometry" />
        </mxCell>
        <mxCell id="2huRS0k6ANEK0z0OvlgN-29" value="" style="edgeStyle=orthogonalEdgeStyle;rounded=0;orthogonalLoop=1;jettySize=auto;html=1;fillColor=#dae8fc;strokeColor=#6c8ebf;strokeWidth=4;" edge="1" parent="1" source="2huRS0k6ANEK0z0OvlgN-26" target="2huRS0k6ANEK0z0OvlgN-28">
          <mxGeometry relative="1" as="geometry" />
        </mxCell>
        <mxCell id="2huRS0k6ANEK0z0OvlgN-30" value="input groceryCost" style="shape=parallelogram;perimeter=parallelogramPerimeter;whiteSpace=wrap;html=1;fixedSize=1;fillColor=#dae8fc;strokeColor=#6c8ebf;strokeWidth=4;" vertex="1" parent="1">
          <mxGeometry x="620" y="400" width="160" height="80" as="geometry" />
        </mxCell>
        <mxCell id="2huRS0k6ANEK0z0OvlgN-31" value="" style="edgeStyle=orthogonalEdgeStyle;rounded=0;orthogonalLoop=1;jettySize=auto;html=1;fillColor=#dae8fc;strokeColor=#6c8ebf;strokeWidth=4;" edge="1" parent="1" source="2huRS0k6ANEK0z0OvlgN-28" target="2huRS0k6ANEK0z0OvlgN-30">
          <mxGeometry relative="1" as="geometry" />
        </mxCell>
        <mxCell id="2huRS0k6ANEK0z0OvlgN-32" value="totalBills = monthlyRent + utilitiesCost + groceryCost" style="rounded=0;whiteSpace=wrap;html=1;fillColor=#dae8fc;strokeColor=#6c8ebf;strokeWidth=4;" vertex="1" parent="1">
          <mxGeometry x="620" y="520" width="160" height="80" as="geometry" />
        </mxCell>
        <mxCell id="2huRS0k6ANEK0z0OvlgN-33" value="" style="edgeStyle=orthogonalEdgeStyle;rounded=0;orthogonalLoop=1;jettySize=auto;html=1;fillColor=#dae8fc;strokeColor=#6c8ebf;strokeWidth=4;" edge="1" parent="1" source="2huRS0k6ANEK0z0OvlgN-30" target="2huRS0k6ANEK0z0OvlgN-32">
          <mxGeometry relative="1" as="geometry" />
        </mxCell>
        <mxCell id="2huRS0k6ANEK0z0OvlgN-34" value="output totalBills" style="shape=parallelogram;perimeter=parallelogramPerimeter;whiteSpace=wrap;html=1;fixedSize=1;fillColor=#dae8fc;strokeColor=#6c8ebf;strokeWidth=4;" vertex="1" parent="1">
          <mxGeometry x="620" y="640" width="160" height="80" as="geometry" />
        </mxCell>
        <mxCell id="2huRS0k6ANEK0z0OvlgN-35" value="" style="edgeStyle=orthogonalEdgeStyle;rounded=0;orthogonalLoop=1;jettySize=auto;html=1;fillColor=#dae8fc;strokeColor=#6c8ebf;strokeWidth=4;" edge="1" parent="1" source="2huRS0k6ANEK0z0OvlgN-32" target="2huRS0k6ANEK0z0OvlgN-34">
          <mxGeometry relative="1" as="geometry" />
        </mxCell>
        <mxCell id="2huRS0k6ANEK0z0OvlgN-36" value="input monthlyPay" style="shape=parallelogram;perimeter=parallelogramPerimeter;whiteSpace=wrap;html=1;fixedSize=1;fillColor=#dae8fc;strokeColor=#6c8ebf;strokeWidth=4;" vertex="1" parent="1">
          <mxGeometry x="830" y="760" width="160" height="80" as="geometry" />
        </mxCell>
        <mxCell id="2huRS0k6ANEK0z0OvlgN-37" value="" style="edgeStyle=orthogonalEdgeStyle;rounded=0;orthogonalLoop=1;jettySize=auto;html=1;fillColor=#dae8fc;strokeColor=#6c8ebf;strokeWidth=4;" edge="1" parent="1" source="2huRS0k6ANEK0z0OvlgN-34" target="2huRS0k6ANEK0z0OvlgN-36">
          <mxGeometry relative="1" as="geometry" />
        </mxCell>
        <mxCell id="2huRS0k6ANEK0z0OvlgN-38" value="discretionarySpending = monthlyPay - totalBills" style="rounded=0;whiteSpace=wrap;html=1;fillColor=#dae8fc;strokeColor=#6c8ebf;strokeWidth=4;" vertex="1" parent="1">
          <mxGeometry x="830" y="880" width="160" height="80" as="geometry" />
        </mxCell>
        <mxCell id="2huRS0k6ANEK0z0OvlgN-39" value="" style="edgeStyle=orthogonalEdgeStyle;rounded=0;orthogonalLoop=1;jettySize=auto;html=1;fillColor=#dae8fc;strokeColor=#6c8ebf;strokeWidth=4;" edge="1" parent="1" source="2huRS0k6ANEK0z0OvlgN-36" target="2huRS0k6ANEK0z0OvlgN-38">
          <mxGeometry relative="1" as="geometry" />
        </mxCell>
        <mxCell id="2huRS0k6ANEK0z0OvlgN-40" value="output&amp;nbsp;&lt;div&gt;discretionarySpending&lt;/div&gt;" style="shape=parallelogram;perimeter=parallelogramPerimeter;whiteSpace=wrap;html=1;fixedSize=1;fillColor=#dae8fc;strokeColor=#6c8ebf;strokeWidth=4;" vertex="1" parent="1">
          <mxGeometry x="830" y="1000" width="160" height="80" as="geometry" />
        </mxCell>
        <mxCell id="2huRS0k6ANEK0z0OvlgN-41" value="" style="edgeStyle=orthogonalEdgeStyle;rounded=0;orthogonalLoop=1;jettySize=auto;html=1;fillColor=#dae8fc;strokeColor=#6c8ebf;strokeWidth=4;" edge="1" parent="1" source="2huRS0k6ANEK0z0OvlgN-38" target="2huRS0k6ANEK0z0OvlgN-40">
          <mxGeometry relative="1" as="geometry" />
        </mxCell>
        <mxCell id="2huRS0k6ANEK0z0OvlgN-42" value="end" style="ellipse;whiteSpace=wrap;html=1;fillColor=#dae8fc;strokeColor=#6c8ebf;strokeWidth=4;" vertex="1" parent="1">
          <mxGeometry x="850" y="1120" width="120" height="80" as="geometry" />
        </mxCell>
        <mxCell id="2huRS0k6ANEK0z0OvlgN-43" value="" style="edgeStyle=orthogonalEdgeStyle;rounded=0;orthogonalLoop=1;jettySize=auto;html=1;fillColor=#dae8fc;strokeColor=#6c8ebf;strokeWidth=4;" edge="1" parent="1" source="2huRS0k6ANEK0z0OvlgN-40" target="2huRS0k6ANEK0z0OvlgN-42">
          <mxGeometry relative="1" as="geometry" />
        </mxCell>
      </root>
    </mxGraphModel>
  </diagram>
</mxfile>
